PathFileType	4	(X/Y/Z)	C:/Users/dbak576/Desktop/Duncan Bakke Modelling Files/H29s1/Static_H29s1.trc	
DataRate	CameraRate	NumFrames	NumMarkers	Units	OrigDataRate	OrigDataStartFrame	OrigNumFrames	
200.00	200.00	5	66	mm	200.00	92	734	
Frame#	Time	LFHD			RFHD			LBHD			RBHD			C7			T10			CLAV			STRN			RBack			LASI			RASI			LPSI			RACR1			RUA1			RElbow			RElbowM			RFA1			RWRR			RWRU			RCAR			LACR1			LUA1			LElbow			LElbowM			LFA1			LWRR			LWRU			LCAR			RTH1			RTH3			RTH2			RLFC			RMFC			RTB1			RTB3			RTB2			RTB4			RLMAL			RCAL			RMT1			RMT5			RToe			LTH1			LTH3			LTH2			LTH4			LLFC			LMFC			LTB1			LTB3			LTB2			LTB4			LLMAL			LCAL			LMT1			LMT5			LToe			RPSI			RMMAL			LMMAL			RTH4			*61			*62			*63			*64			*65			
		X1	Y1	Z1	X2	Y2	Z2	X3	Y3	Z3	X4	Y4	Z4	X5	Y5	Z5	X6	Y6	Z6	X7	Y7	Z7	X8	Y8	Z8	X9	Y9	Z9	X10	Y10	Z10	X11	Y11	Z11	X12	Y12	Z12	X13	Y13	Z13	X14	Y14	Z14	X15	Y15	Z15	X16	Y16	Z16	X17	Y17	Z17	X18	Y18	Z18	X19	Y19	Z19	X20	Y20	Z20	X21	Y21	Z21	X22	Y22	Z22	X23	Y23	Z23	X24	Y24	Z24	X25	Y25	Z25	X26	Y26	Z26	X27	Y27	Z27	X28	Y28	Z28	X29	Y29	Z29	X30	Y30	Z30	X31	Y31	Z31	X32	Y32	Z32	X33	Y33	Z33	X34	Y34	Z34	X35	Y35	Z35	X36	Y36	Z36	X37	Y37	Z37	X38	Y38	Z38	X39	Y39	Z39	X40	Y40	Z40	X41	Y41	Z41	X42	Y42	Z42	X43	Y43	Z43	X44	Y44	Z44	X45	Y45	Z45	X46	Y46	Z46	X47	Y47	Z47	X48	Y48	Z48	X49	Y49	Z49	X50	Y50	Z50	X51	Y51	Z51	X52	Y52	Z52	X53	Y53	Z53	X54	Y54	Z54	X55	Y55	Z55	X56	Y56	Z56	X57	Y57	Z57	X58	Y58	Z58	X59	Y59	Z59	X60	Y60	Z60	X61	Y61	Z61	X62	Y62	Z62	X63	Y63	Z63	X64	Y64	Z64	X65	Y65	Z65	X66	Y66	Z66	

92	0.455	-41.85736	-383.00348	1691.98877	58.47603	-382.73596	1695.86206	-48.42472	-525.75476	1596.58936	97.62949	-508.62598	1610.56909	20.74954	-550.55023	1485.68176	15.98161	-552.28931	1165.62378	20.59394	-347.98654	1448.83215	18.75080	-252.07353	1302.92981	134.95508	-583.87415	1357.22632	-165.25883	-315.28064	1017.12122	204.62276	-314.27875	1018.50317	-31.58114	-567.02625	1041.41138	165.44159	-493.29907	1523.07690	332.50412	-459.05942	1467.68335	463.28159	-391.39145	1451.63025	446.55551	-290.12097	1374.70947	589.59326	-305.84991	1454.73743	650.68823	-194.42915	1501.70667	673.98376	-216.04295	1431.69580	744.73730	-192.22717	1471.86853	-128.69368	-492.90021	1520.36316	-284.35873	-473.78137	1453.38550	-438.32407	-427.53812	1426.90210	-431.94391	-339.44604	1341.82227	-557.47766	-359.23752	1433.26465	-645.86761	-264.74670	1489.66016	-663.40277	-251.81635	1421.63098	-734.72937	-245.10558	1465.79468	238.23399	-410.08499	796.73798	224.71663	-386.80472	626.38599	222.93246	-339.65829	719.89270	221.64482	-398.06870	509.95151	65.90120	-389.26157	501.90482	160.42543	-340.24548	381.44232	157.69463	-375.78696	212.15141	216.35838	-380.92123	301.73892	159.32817	-357.66138	296.63058	191.50246	-468.94437	79.69398	143.45773	-528.32605	48.89756	151.97630	-306.82068	27.42831	249.51598	-365.41122	32.70843	189.96625	-259.51044	29.79340	-201.41624	-374.16205	790.82361	-193.16931	-366.58694	619.24188	-180.30928	-313.64117	708.75800	-196.54243	-371.32498	705.55969	-198.85460	-384.08578	533.86566	-45.68832	-365.18433	505.01508	-150.90559	-322.86188	399.25110	-145.96231	-359.50845	230.32083	-202.46521	-366.36584	317.98065	-146.79848	-337.99115	315.51651	-176.77817	-461.26859	81.34620	-131.58791	-516.98438	46.47776	-137.63689	-302.71567	40.16131	-227.53627	-348.05127	24.22340	-166.61021	-244.27029	26.51341	45.90210	-576.99847	1033.15369	107.37601	-430.91995	77.85683	-91.75970	-443.80807	78.82998				232.04790	-397.96417	710.98151												 
93	0.460	-41.86611	-382.99655	1691.93835	58.53863	-382.81436	1695.87476	-48.39067	-525.77142	1596.57690	97.52032	-508.43784	1610.58252	20.69760	-550.55103	1485.70227	15.95999	-552.30994	1165.64355	20.70166	-348.06076	1448.77380	18.72811	-252.03093	1302.92310	134.97728	-583.88037	1357.24243	-165.26941	-315.31345	1017.11554	204.66409	-314.34482	1018.64929	-31.76418	-567.26111	1041.49219	165.45329	-493.34637	1523.05701	332.48541	-459.09448	1467.71716	463.28714	-391.37402	1451.59375	446.60413	-290.13556	1374.67871	589.49518	-305.81033	1454.69861	650.65729	-194.40639	1501.74365	673.98108	-216.04668	1431.70276	744.80359	-192.67371	1471.75830	-128.71471	-492.90189	1520.33069	-284.41229	-473.83322	1453.35010	-438.30038	-427.58151	1426.88391	-432.02112	-339.96417	1341.71765	-557.43860	-359.28061	1433.30237	-645.77130	-264.84186	1489.74011	-663.51282	-251.51752	1421.32275	-734.66754	-245.17931	1465.76965	238.24217	-410.12531	796.76385	224.74036	-386.77081	626.39667	222.94926	-339.68008	719.89520	221.66734	-398.14191	510.00650	65.87394	-389.27277	501.90652	160.43430	-340.24017	381.43265	157.68497	-375.79373	212.14732	216.33669	-380.95389	301.72458	159.32674	-357.69974	296.63477	191.50346	-468.96320	79.69786	143.57661	-528.34705	49.02116	151.98079	-306.84769	27.40696	249.59956	-365.71539	32.81310	189.96461	-259.49222	29.89132	-201.43257	-374.19235	790.81799	-193.17589	-366.61404	619.25397	-180.31377	-313.69037	708.79834	-196.56071	-371.35434	705.60583	-199.01836	-384.13528	533.78687	-45.69663	-365.22623	505.03094	-150.95493	-322.92200	399.30972	-145.95078	-359.58331	230.31599	-202.41602	-366.40649	317.97693	-146.78223	-338.02927	315.43512	-176.81442	-461.25995	81.32610	-131.52255	-516.85150	46.52819	-137.60684	-302.69391	40.17649	-227.57069	-348.06555	24.23831	-166.55722	-244.41876	26.66325	45.94574	-576.99347	1033.13989	107.35595	-430.92935	77.86758	-91.82858	-443.81339	78.83495				232.02448	-397.58981	710.79150												 
94	0.465	-41.71274	-382.99701	1691.80249	58.67714	-382.87173	1695.91370	-48.35659	-525.78259	1596.56384	97.39745	-508.27594	1610.60461	20.62944	-550.60999	1485.74280	15.94100	-552.33850	1165.64014	20.73823	-348.12350	1448.72449	18.73379	-252.00037	1302.90063	134.98587	-583.88000	1357.25452	-165.25882	-315.34256	1017.13550	204.68068	-314.39325	1018.73169	-31.90869	-567.58173	1041.52686	165.45665	-493.37357	1523.00647	332.45169	-459.13031	1467.75024	463.29971	-391.34680	1451.53259	446.66653	-290.14642	1374.63452	589.49255	-305.77161	1454.78076	650.64441	-194.38377	1501.77930	673.97369	-216.05190	1431.71777	744.72449	-193.10030	1471.64844	-128.72871	-492.90137	1520.32056	-284.43472	-473.83798	1453.27832	-438.28824	-427.62723	1426.87817	-432.03342	-340.31500	1341.65002	-557.41498	-359.34967	1433.32446	-645.72717	-264.92126	1489.81079	-663.39117	-251.26056	1420.91821	-734.65289	-245.20981	1465.78223	238.25653	-410.15857	796.79034	224.67815	-386.74036	626.43427	222.96230	-339.66766	719.88733	221.71570	-398.18277	510.04120	65.85885	-389.28653	501.91248	160.44720	-340.24780	381.42676	157.67719	-375.80334	212.13759	216.31252	-380.98514	301.70480	159.32352	-357.73383	296.63550	191.49945	-468.98187	79.70438	143.65913	-528.33234	49.09483	151.97978	-306.86475	27.38272	249.99689	-365.99316	33.08598	189.95714	-259.49783	29.92911	-201.42874	-374.24292	790.80377	-193.18742	-366.63876	619.26733	-180.33261	-313.73267	708.83942	-196.57697	-371.38132	705.65057	-199.13501	-384.20731	533.77319	-45.70946	-365.26224	505.03958	-151.00795	-322.98932	399.38184	-145.94693	-359.63504	230.29179	-202.38254	-366.44009	317.95615	-146.77223	-338.08328	315.37021	-176.81479	-461.25653	81.33762	-131.45963	-516.76050	46.50449	-137.58896	-302.61331	40.28653	-227.59535	-348.10269	24.24641	-166.40607	-244.41420	26.92141	45.98736	-576.99872	1033.12781	107.34782	-430.94907	77.87173	-91.89588	-443.80969	78.84620				232.51001	-396.89709	710.71594												 
95	0.470	-41.52353	-383.06073	1691.72302	58.72112	-382.96887	1695.87341	-48.33394	-525.80133	1596.54700	97.29572	-508.16849	1610.63391	20.55894	-550.71417	1485.79041	15.94001	-552.37634	1165.65234	20.70095	-348.16580	1448.68823	18.79520	-251.99564	1302.86829	134.98653	-583.90222	1357.26050	-165.22694	-315.35052	1017.14423	204.58238	-314.39465	1018.56915	-32.02350	-567.87567	1041.53577	165.46315	-493.38318	1522.95837	332.40646	-459.16370	1467.76038	463.30743	-391.32452	1451.49316	446.73154	-290.15417	1374.58887	589.55731	-305.74442	1454.89026	650.64209	-194.36694	1501.80444	673.96356	-216.05771	1431.73474	744.56421	-193.60362	1471.50964	-128.73840	-492.92542	1520.33093	-284.40448	-473.81415	1453.22534	-438.28772	-427.68420	1426.87756	-431.81305	-340.30011	1341.55872	-557.40234	-359.44156	1433.31079	-645.74182	-264.99182	1489.81396	-663.31995	-251.55560	1421.27820	-734.65051	-245.19397	1465.80872	238.26990	-410.20068	796.82275	224.62793	-386.72861	626.48279	222.95821	-339.58768	719.87561	221.78220	-398.19339	510.05392	65.85625	-389.31323	501.91840	160.45682	-340.27161	381.44696	157.66455	-375.81485	212.11649	216.29327	-381.01019	301.68732	159.32356	-357.76587	296.63574	191.48628	-468.99390	79.71648	143.62122	-528.27844	49.08074	151.98004	-306.87241	27.35529	250.45778	-366.31104	33.29197	189.93834	-259.53000	29.94926	-201.42924	-374.30286	790.77850	-193.21666	-366.66891	619.26172	-180.36794	-313.77371	708.86218	-196.60175	-371.40988	705.67816	-199.19441	-384.29190	533.81427	-45.72522	-365.28940	505.03851	-151.02715	-323.04782	399.44611	-145.94313	-359.65976	230.23087	-202.36728	-366.47534	317.94016	-146.76695	-338.15079	315.32932	-176.79897	-461.25757	81.35794	-131.42210	-516.70996	46.42670	-137.58081	-302.51709	40.42919	-227.59331	-348.15039	24.24008	-166.28001	-244.30464	26.98582	46.02124	-577.00696	1033.11609	107.34364	-430.97729	77.86665	-91.95895	-443.80307	78.85372				233.64044	-395.94263	710.71460												 
96	0.475	-41.35205	-383.13901	1691.69995	58.72034	-383.09702	1695.80396	-48.31059	-525.81976	1596.54102	97.20705	-508.11023	1610.66577	20.46175	-550.80817	1485.80933	15.94787	-552.41235	1165.67261	20.61094	-348.17795	1448.66382	18.86474	-252.00970	1302.83862	134.97711	-583.93713	1357.26538	-165.19850	-315.35782	1017.16443	204.40688	-314.36865	1018.30035	-32.12111	-568.09558	1041.54004	165.48506	-493.38431	1522.91345	332.36288	-459.19623	1467.74976	463.31760	-391.29962	1451.45313	446.78503	-290.15671	1374.55493	589.66095	-305.73566	1454.94153	650.64453	-194.35017	1501.81543	673.95251	-216.06398	1431.74976	744.28638	-194.09921	1471.37366	-128.74809	-492.95166	1520.34753	-284.33252	-473.79199	1453.19482	-438.30078	-427.78101	1426.88367	-431.47842	-340.06277	1341.49988	-557.39764	-359.50113	1433.31372	-645.72235	-265.06143	1489.98230	-663.35028	-252.15388	1421.55652	-734.68024	-245.15764	1465.86084	238.27313	-410.23880	796.85895	224.52504	-386.73431	626.53693	222.93193	-339.49088	719.86273	221.86052	-398.18246	510.05692	65.85809	-389.33588	501.92303	160.45987	-340.30872	381.47305	157.65170	-375.82370	212.09377	216.28410	-381.02499	301.68173	159.33388	-357.78815	296.62595	191.46490	-469.00580	79.71673	143.50389	-528.18781	48.96941	151.98273	-306.87466	27.34979	250.80746	-366.62024	33.38028	189.91803	-259.51691	30.01536	-201.43077	-374.36017	790.74896	-193.23666	-366.69861	619.26093	-180.41545	-313.81464	708.86499	-196.63094	-371.41721	705.68713	-199.21748	-384.37909	533.87750	-45.74165	-365.30548	505.03320	-151.02481	-323.08554	399.47092	-145.94295	-359.66641	230.17540	-202.37511	-366.50748	317.94379	-146.77180	-338.21600	315.31406	-176.80417	-461.26920	81.33646	-131.50533	-516.83569	46.24965	-137.62407	-302.57281	40.27499	-227.57610	-348.20117	24.21729	-166.15955	-244.12428	26.99275	46.04295	-577.01630	1033.10437	107.33884	-431.00101	77.85732	-92.02248	-443.80234	78.83945				235.07228	-394.73148	710.85260												 
